# xmcd
#
# Track frame offsets: 
#        150
#        13209
#        22249
#        35778
#        51799
#
# Disc length: 968 seconds
#
# Revision: 0
# Processed by: cddbd v1.5.2PL0 Copyright (c) Steve Scherf et al.
# Submitted via: ExactAudioCopy v0.95b4
#
DISCID=4203c605
DTITLE=The Bronson Brothers - The Bronson Brothers LP
DYEAR=2007
DGENRE=Alt. Rock
TTITLE0=LoveMyLittleBird
TTITLE1=MelodyBronson
TTITLE2=November
TTITLE3=MyBabyLove
TTITLE4=Initials S.G.
EXTD=
EXTT0=
EXTT1=
EXTT2=
EXTT3=
EXTT4=
PLAYORDER=
